<mxfile host="app.diagrams.net" modified="2022-07-12T07:34:29.314Z" agent="5.0 (Windows NT 10.0; Win64; x64) AppleWebKit/537.36 (KHTML, like Gecko) Chrome/103.0.0.0 Safari/537.36" etag="InriLSFrRgEfPLDqOOxr" version="20.0.4" type="github">
  <diagram id="3mUj_7zaJnR7qpkl1MnG" name="第 1 页">
    <mxGraphModel dx="1422" dy="762" grid="1" gridSize="10" guides="1" tooltips="1" connect="1" arrows="1" fold="1" page="1" pageScale="1" pageWidth="827" pageHeight="1169" math="0" shadow="0">
      <root>
        <mxCell id="0" />
        <mxCell id="1" parent="0" />
        <mxCell id="bH3fQCjxTqD3F1i3P5sv-4" value="风控" style="rounded=0;whiteSpace=wrap;html=1;" vertex="1" parent="1">
          <mxGeometry x="90" y="320" width="80" height="40" as="geometry" />
        </mxCell>
        <mxCell id="bH3fQCjxTqD3F1i3P5sv-5" value="资产保全" style="rounded=0;whiteSpace=wrap;html=1;" vertex="1" parent="1">
          <mxGeometry x="200" y="320" width="80" height="40" as="geometry" />
        </mxCell>
        <mxCell id="bH3fQCjxTqD3F1i3P5sv-6" value="客户经营" style="rounded=0;whiteSpace=wrap;html=1;" vertex="1" parent="1">
          <mxGeometry x="300" y="320" width="80" height="40" as="geometry" />
        </mxCell>
        <mxCell id="bH3fQCjxTqD3F1i3P5sv-7" value="合规" style="rounded=0;whiteSpace=wrap;html=1;" vertex="1" parent="1">
          <mxGeometry x="400" y="320" width="80" height="40" as="geometry" />
        </mxCell>
        <mxCell id="bH3fQCjxTqD3F1i3P5sv-8" value="综合" style="rounded=0;whiteSpace=wrap;html=1;" vertex="1" parent="1">
          <mxGeometry x="500" y="320" width="80" height="40" as="geometry" />
        </mxCell>
        <mxCell id="bH3fQCjxTqD3F1i3P5sv-9" value="获客" style="rounded=0;whiteSpace=wrap;html=1;" vertex="1" parent="1">
          <mxGeometry x="600" y="320" width="80" height="40" as="geometry" />
        </mxCell>
        <mxCell id="bH3fQCjxTqD3F1i3P5sv-19" value="获贷" style="rounded=0;whiteSpace=wrap;html=1;" vertex="1" parent="1">
          <mxGeometry x="700" y="320" width="80" height="40" as="geometry" />
        </mxCell>
        <mxCell id="bH3fQCjxTqD3F1i3P5sv-22" style="edgeStyle=orthogonalEdgeStyle;rounded=0;orthogonalLoop=1;jettySize=auto;html=1;" edge="1" parent="1" source="bH3fQCjxTqD3F1i3P5sv-21" target="bH3fQCjxTqD3F1i3P5sv-4">
          <mxGeometry relative="1" as="geometry" />
        </mxCell>
        <mxCell id="bH3fQCjxTqD3F1i3P5sv-23" style="edgeStyle=orthogonalEdgeStyle;rounded=0;orthogonalLoop=1;jettySize=auto;html=1;" edge="1" parent="1" source="bH3fQCjxTqD3F1i3P5sv-21" target="bH3fQCjxTqD3F1i3P5sv-5">
          <mxGeometry relative="1" as="geometry" />
        </mxCell>
        <mxCell id="bH3fQCjxTqD3F1i3P5sv-24" style="edgeStyle=orthogonalEdgeStyle;rounded=0;orthogonalLoop=1;jettySize=auto;html=1;entryX=0.5;entryY=0;entryDx=0;entryDy=0;" edge="1" parent="1" source="bH3fQCjxTqD3F1i3P5sv-21" target="bH3fQCjxTqD3F1i3P5sv-6">
          <mxGeometry relative="1" as="geometry" />
        </mxCell>
        <mxCell id="bH3fQCjxTqD3F1i3P5sv-25" style="edgeStyle=orthogonalEdgeStyle;rounded=0;orthogonalLoop=1;jettySize=auto;html=1;" edge="1" parent="1" source="bH3fQCjxTqD3F1i3P5sv-21" target="bH3fQCjxTqD3F1i3P5sv-7">
          <mxGeometry relative="1" as="geometry" />
        </mxCell>
        <mxCell id="bH3fQCjxTqD3F1i3P5sv-26" style="edgeStyle=orthogonalEdgeStyle;rounded=0;orthogonalLoop=1;jettySize=auto;html=1;" edge="1" parent="1" source="bH3fQCjxTqD3F1i3P5sv-21" target="bH3fQCjxTqD3F1i3P5sv-8">
          <mxGeometry relative="1" as="geometry" />
        </mxCell>
        <mxCell id="bH3fQCjxTqD3F1i3P5sv-27" style="edgeStyle=orthogonalEdgeStyle;rounded=0;orthogonalLoop=1;jettySize=auto;html=1;" edge="1" parent="1" source="bH3fQCjxTqD3F1i3P5sv-21" target="bH3fQCjxTqD3F1i3P5sv-9">
          <mxGeometry relative="1" as="geometry" />
        </mxCell>
        <mxCell id="bH3fQCjxTqD3F1i3P5sv-28" style="edgeStyle=orthogonalEdgeStyle;rounded=0;orthogonalLoop=1;jettySize=auto;html=1;" edge="1" parent="1" source="bH3fQCjxTqD3F1i3P5sv-21" target="bH3fQCjxTqD3F1i3P5sv-19">
          <mxGeometry relative="1" as="geometry" />
        </mxCell>
        <mxCell id="bH3fQCjxTqD3F1i3P5sv-21" value="卡部" style="rounded=0;whiteSpace=wrap;html=1;" vertex="1" parent="1">
          <mxGeometry x="354" y="120" width="120" height="60" as="geometry" />
        </mxCell>
      </root>
    </mxGraphModel>
  </diagram>
</mxfile>
